<svg xmlns="http://www.w3.org/2000/svg" xmlns:xlink="http://www.w3.org/1999/xlink" viewBox="0 0 270.22 269.88"><defs><style>.cls-1{fill:url(#linear-gradient);}.cls-2{fill:url(#linear-gradient-2);}.cls-3{fill:url(#linear-gradient-3);}.cls-4{fill:url(#linear-gradient-4);}.cls-5{fill:url(#linear-gradient-5);}</style><linearGradient id="linear-gradient" x1="15.05" y1="78.63" x2="103.66" y2="30.92" gradientTransform="translate(-35.33 221.92) rotate(-72)" gradientUnits="userSpaceOnUse"><stop offset="0" stop-color="#f15623"/><stop offset="0.53" stop-color="#ed1846"/><stop offset="1" stop-color="#db163b"/></linearGradient><linearGradient id="linear-gradient-2" x1="91.81" y1="103.23" x2="146.34" y2="184.35" gradientTransform="matrix(0.3, 0.95, -0.95, 0.3, 172.46, -107.36)" gradientUnits="userSpaceOnUse"><stop offset="0" stop-color="#b5d334"/><stop offset="0.59" stop-color="#62c041"/><stop offset="1" stop-color="#25b34b"/></linearGradient><linearGradient id="linear-gradient-3" x1="26.41" y1="146.81" x2="154.65" y2="146.81" gradientTransform="translate(294.01 304.33) rotate(143.75)" gradientUnits="userSpaceOnUse"><stop offset="0" stop-color="#ffe600"/><stop offset="0.44" stop-color="#fcc50d"/><stop offset="1" stop-color="#f99f1c"/></linearGradient><linearGradient id="linear-gradient-4" x1="203.46" y1="165.73" x2="270.29" y2="165.73" gradientTransform="translate(-35.33 221.92) rotate(-72)" gradientUnits="userSpaceOnUse"><stop offset="0" stop-color="#00b8c9"/><stop offset="1" stop-color="#009e9b"/></linearGradient><linearGradient id="linear-gradient-5" x1="59.8" y1="246.96" x2="181.14" y2="246.96" gradientTransform="translate(-35.33 221.92) rotate(-72)" gradientUnits="userSpaceOnUse"><stop offset="0" stop-color="#7e67ad"/><stop offset="0.38" stop-color="#6c5aa3"/><stop offset="1" stop-color="#473e8e"/></linearGradient></defs><title>Asset 2</title><g id="Layer_2" data-name="Layer 2"><g id="Layer_1-2" data-name="Layer 1"><path class="cls-1" d="M71.74,225.87c-.57-.39-1.14-.8-1.7-1.2A110.77,110.77,0,0,1,27.93,107.53l-8.07-15L4.74,99.79A135.07,135.07,0,0,0,55.69,244.42l1.88,1.34-2.3-16.89Z"/><path class="cls-2" d="M28.79,102.5c.19-.59.38-1.17.58-1.76a110.85,110.85,0,0,1,99-75.31l11.87-12.19L128.75,1A135.37,135.37,0,0,0,6.21,93c-.21.62-.42,1.25-.62,1.88L21,87.64Z"/><path class="cls-3" d="M201.32,222.81c-.53.41-1.07.81-1.61,1.21a110.7,110.7,0,0,1-124.09,4.63L58.9,231.82l2.39,16.67a135,135,0,0,0,152.84-4.79l1.73-1.29-16.72-3Z"/><path class="cls-4" d="M176.85,6.66A135,135,0,0,0,135.11,0l-2.66,0L144.27,12.3,132.74,24.44l2.37,0A110.79,110.79,0,0,1,238,94.4l15.37,7.4,8-14.8A134.77,134.77,0,0,0,176.85,6.66Z"/><path class="cls-5" d="M239.72,99c.22.64.44,1.28.65,1.93a110.72,110.72,0,0,1-34.9,119.63l-2.31,16.88,16.55,3A135.3,135.3,0,0,0,263.6,93.36c-.23-.7-.46-1.4-.7-2.09l-8.07,15Z"/></g></g></svg>
