<svg xmlns="http://www.w3.org/2000/svg" xmlns:xlink="http://www.w3.org/1999/xlink" viewBox="0 0 271.38 270.55"><defs><style>.cls-1{fill:url(#linear-gradient);}.cls-2{fill:url(#linear-gradient-2);}.cls-3{fill:url(#linear-gradient-3);}.cls-4{fill:url(#linear-gradient-4);}.cls-5{fill:url(#linear-gradient-5);}.cls-6,.cls-8{fill:#fff;}.cls-7,.cls-8{stroke:#fff;stroke-miterlimit:10;stroke-width:0.25px;}.cls-7{fill:url(#linear-gradient-6);}.cls-9{fill:#342f53;}</style><linearGradient id="linear-gradient" x1="10.94" y1="114.09" x2="122.78" y2="53.86" gradientTransform="matrix(0.3, -0.95, 0.95, 0.3, -35.1, 223.24)" gradientUnits="userSpaceOnUse"><stop offset="0" stop-color="#f15623"/><stop offset="0.53" stop-color="#ed1846"/><stop offset="1" stop-color="#db163b"/></linearGradient><linearGradient id="linear-gradient-2" x1="17.48" y1="97.94" x2="86.31" y2="200.32" gradientTransform="matrix(0.31, 0.95, -0.95, 0.31, 222.4, -34.95)" gradientUnits="userSpaceOnUse"><stop offset="0" stop-color="#b5d334"/><stop offset="0.59" stop-color="#62c041"/><stop offset="1" stop-color="#25b34b"/></linearGradient><linearGradient id="linear-gradient-3" x1="134.1" y1="63.4" x2="263.15" y2="63.4" gradientTransform="translate(324.24 164.48) rotate(143.56)" gradientUnits="userSpaceOnUse"><stop offset="0" stop-color="#ffe600"/><stop offset="0.44" stop-color="#fcc50d"/><stop offset="1" stop-color="#f99f1c"/></linearGradient><linearGradient id="linear-gradient-4" x1="40.73" y1="215.82" x2="193.88" y2="215.82" gradientTransform="translate(-35.5 222.44) rotate(-72.1)" gradientUnits="userSpaceOnUse"><stop offset="0" stop-color="#7e67ad"/><stop offset="0.38" stop-color="#6c5aa3"/><stop offset="1" stop-color="#473e8e"/></linearGradient><linearGradient id="linear-gradient-5" x1="218.64" y1="127.86" x2="336.87" y2="127.86" gradientTransform="translate(-15.31 298.55) rotate(-72.2)" gradientUnits="userSpaceOnUse"><stop offset="0" stop-color="#00b8c9"/><stop offset="1" stop-color="#009e9b"/></linearGradient><linearGradient id="linear-gradient-6" x1="147.84" y1="155.38" x2="90.12" y2="73.32" gradientUnits="userSpaceOnUse"><stop offset="0" stop-color="#fff"/><stop offset="0.41" stop-color="#eaebec"/><stop offset="0.51" stop-color="#e4e6e7"/><stop offset="1" stop-color="#c6cdd1"/></linearGradient></defs><title>essentials</title><g id="Layer_2" data-name="Layer 2"><g id="Layer_1-2" data-name="Layer 1"><path class="cls-1" d="M107.44,125.91,6.41,93.8A135.71,135.71,0,0,0,56.64,245.17L118.42,159A29.65,29.65,0,0,1,107.44,125.91Z"/><path class="cls-2" d="M126.21,107.78a29.33,29.33,0,0,1,9.16-1.47l-.05-106A135.85,135.85,0,0,0,6.35,94.1L107.2,126.81A29.59,29.59,0,0,1,126.21,107.78Z"/><path class="cls-3" d="M216.27,244l-63-85.28a29.65,29.65,0,0,1-34.84.27L56.79,245.28A135.72,135.72,0,0,0,216.27,244Z"/><path class="cls-4" d="M163.89,144a29.53,29.53,0,0,1-10.74,14.84l62.47,85.66a135.67,135.67,0,0,0,49-151.77l-100.77,33A29.47,29.47,0,0,1,163.89,144Z"/><path class="cls-5" d="M144.71,107.47a29.58,29.58,0,0,1,19.1,19L264.53,93.31A135.86,135.86,0,0,0,135.17,0l.38,106.05A29.21,29.21,0,0,1,144.71,107.47Z"/></g><g id="Layer_2-2" data-name="Layer 2"><path class="cls-6" d="M199.85,50.49a7.27,7.27,0,1,1-7.27,7.27,7.26,7.26,0,0,1,7.27-7.27m-16.27,9.09h-3.73V55.94h3.73A16.35,16.35,0,0,1,198,41.49V37.76h3.64v3.73a16.35,16.35,0,0,1,14.45,14.45h3.73v3.64h-3.73A16.35,16.35,0,0,1,201.67,74v3.73H198V74a16.35,16.35,0,0,1-14.45-14.45M199.85,45a12.73,12.73,0,1,0,12.73,12.73A12.73,12.73,0,0,0,199.85,45Z"/><path class="cls-6" d="M73,37.76A17.15,17.15,0,0,0,55.88,54.9H50.17l7.62,7.62,7.62-7.62H59.69A13.34,13.34,0,1,1,73,68.24a13.64,13.64,0,0,1-7.74-2.48L62.55,68.5A17.35,17.35,0,0,0,73,72.05a17.15,17.15,0,0,0,0-34.29M76.84,54.9A3.81,3.81,0,1,0,73,58.71,3.82,3.82,0,0,0,76.84,54.9Z"/><path class="cls-6" d="M48.9,177.23a2.73,2.73,0,1,0-2.73-2.73,2.72,2.72,0,0,0,2.73,2.73m2.72-16.36H47.08v4.54h8.11l-3.57-4.54M27.08,177.23a2.73,2.73,0,1,0-2.73-2.73,2.73,2.73,0,0,0,2.73,2.73m25.45-19.09L58,165.41v9.09H54.35a5.46,5.46,0,1,1-10.91,0H32.53a5.46,5.46,0,1,1-10.91,0H18v-20a3.62,3.62,0,0,1,3.63-3.63H47.08v7.27h5.45M30.71,154.5V160H25.26v3.63h5.45v5.46h3.64v-5.46h5.46V160H34.35V154.5Z"/><path class="cls-6" d="M234.15,164.91h12.73c-1,7.47-6,14.15-12.73,16.22V164.91H221.43V154.55l12.72-5.66m0-4-16.36,7.27v10.91c0,10.09,7,19.51,16.36,21.82,9.38-2.31,16.37-11.73,16.37-21.82V152.18Z"/><path class="cls-6" d="M129.21,218.58A14.86,14.86,0,0,1,140.5,243.1l.62.62h1.8l11.43,11.43-3.43,3.43L139.5,247.15v-1.81l-.62-.61a14.86,14.86,0,1,1-9.67-26.15m0,4.57a10.29,10.29,0,1,0,10.29,10.28A10.25,10.25,0,0,0,129.21,223.15Z"/></g><g id="Layer_3" data-name="Layer 3"><path class="cls-7" d="M205.64,136.61a71,71,0,1,1-71-71A71,71,0,0,1,205.64,136.61Z"/><path class="cls-8" d="M134.64,208.17a71.56,71.56,0,1,1,71.56-71.56A71.65,71.65,0,0,1,134.64,208.17Zm0-142a70.43,70.43,0,1,0,70.43,70.43A70.51,70.51,0,0,0,134.64,66.18Z"/><path class="cls-9" d="M87.25,127.82s17.29-.29,25.65,19.3c0,0,36.6-52.44,74.35-44.66,0,0-42.07,16.71-75.79,75.5Z"/></g></g></svg>
