<svg xmlns="http://www.w3.org/2000/svg" viewBox="0 0 538 336.68"><defs><style>.cls-1{fill:#2596c9;}.cls-2{fill:#4fbbeb;}.cls-3{fill:#010101;opacity:0.07;}.cls-4{fill:#fff;}</style></defs><title>eye_1</title><g id="Layer_2" data-name="Layer 2"><g id="Layer_1-2" data-name="Layer 1"><path class="cls-1" d="M538,168.33A168.31,168.31,0,0,1,369.65,336.68H183.54a24,24,0,0,1,0-48.08h1a24,24,0,1,0,0-48.09h-70.2a24.05,24.05,0,1,1,0-48.1H165.6a24,24,0,1,0,0-48.09h-23a24,24,0,1,1,0-48.09h59.52a24,24,0,0,0,0-48.09h-38.6a24,24,0,0,1,0-48.1H370.27q4.47,0,8.89.26a167.29,167.29,0,0,1,73.43,21.55A168.15,168.15,0,0,1,538,168.33Z"/><path class="cls-1" d="M66.21,96.19H24.05a24,24,0,1,0,0,48.09H66.21a24,24,0,0,0,0-48.09Z"/><path class="cls-1" d="M87.21,0h-.65a24,24,0,0,0,0,48.09h.65A24,24,0,0,0,87.21,0Z"/><path class="cls-1" d="M107.25,288.56H82.4a24,24,0,1,0,0,48.09h24.85a24,24,0,1,0,0-48.09Z"/><path class="cls-2" d="M506.28,168.34A136.62,136.62,0,1,1,369.67,31.72,136.61,136.61,0,0,1,506.28,168.34Z"/><path class="cls-3" d="M478.82,86.17a136.62,136.62,0,0,1-212.09,172,136.62,136.62,0,1,0,212.09-172Z"/><path class="cls-4" d="M474.55,168.34A104.89,104.89,0,1,1,369.67,63.45,104.88,104.88,0,0,1,474.55,168.34Z"/><path d="M395.66,152.76a40.72,40.72,0,0,1-3.22-53.95,73.16,73.16,0,1,0,50.39,69.53,74.88,74.88,0,0,0-.42-7.83A40.73,40.73,0,0,1,395.66,152.76Z"/></g></g></svg>
