<svg xmlns="http://www.w3.org/2000/svg" xmlns:xlink="http://www.w3.org/1999/xlink" viewBox="0 0 270.22 269.88"><defs><style>.cls-1{fill:url(#linear-gradient);}.cls-2{fill:url(#linear-gradient-2);}.cls-3{fill:url(#linear-gradient-3);}.cls-4{fill:url(#linear-gradient-4);}.cls-5{fill:url(#linear-gradient-5);}.cls-6{fill:url(#linear-gradient-6);}.cls-7{fill:#fff;}.cls-8{fill:url(#linear-gradient-7);}.cls-9{fill:url(#linear-gradient-8);}.cls-10{fill:url(#linear-gradient-9);}.cls-11{fill:url(#linear-gradient-10);}.cls-12{fill:url(#linear-gradient-11);}</style><linearGradient id="linear-gradient" x1="36.23" y1="117.57" x2="124.84" y2="69.86" gradientTransform="matrix(0.3, -0.95, 0.95, 0.3, -34.31, 222.98)" gradientUnits="userSpaceOnUse"><stop offset="0" stop-color="#f15623"/><stop offset="0.53" stop-color="#ed1846"/><stop offset="1" stop-color="#db163b"/></linearGradient><linearGradient id="linear-gradient-2" x1="42.52" y1="105.81" x2="97.05" y2="186.92" gradientTransform="translate(221.91 -35.62) rotate(71.97)" gradientUnits="userSpaceOnUse"><stop offset="0" stop-color="#b5d334"/><stop offset="0.59" stop-color="#62c041"/><stop offset="1" stop-color="#25b34b"/></linearGradient><linearGradient id="linear-gradient-3" x1="135.26" y1="77.57" x2="237.5" y2="77.57" gradientTransform="translate(324.22 163.15) rotate(143.56)" gradientUnits="userSpaceOnUse"><stop offset="0" stop-color="#ffe600"/><stop offset="0.44" stop-color="#fcc50d"/><stop offset="1" stop-color="#f99f1c"/></linearGradient><linearGradient id="linear-gradient-4" x1="59.83" y1="198.18" x2="181.17" y2="198.18" gradientTransform="translate(-34.72 222.18) rotate(-72.1)" gradientUnits="userSpaceOnUse"><stop offset="0" stop-color="#7e67ad"/><stop offset="0.38" stop-color="#6c5aa3"/><stop offset="1" stop-color="#473e8e"/></linearGradient><linearGradient id="linear-gradient-5" x1="214.51" y1="119.71" x2="308.19" y2="119.71" gradientTransform="translate(-14.52 298.29) rotate(-72.2)" gradientUnits="userSpaceOnUse"><stop offset="0" stop-color="#00b8c9"/><stop offset="1" stop-color="#009e9b"/></linearGradient><linearGradient id="linear-gradient-6" x1="148.05" y1="153.71" x2="90.33" y2="71.65" gradientUnits="userSpaceOnUse"><stop offset="0" stop-color="#fff"/><stop offset="0.41" stop-color="#eaebec"/><stop offset="0.51" stop-color="#e4e6e7"/><stop offset="1" stop-color="#c6cdd1"/></linearGradient><linearGradient id="linear-gradient-7" x1="14.75" y1="78.37" x2="103.37" y2="30.66" gradientTransform="translate(-34.99 221.72) rotate(-72)" xlink:href="#linear-gradient"/><linearGradient id="linear-gradient-8" x1="92.15" y1="103.03" x2="146.68" y2="184.15" gradientTransform="translate(172.16 -107.62) rotate(72.55)" xlink:href="#linear-gradient-2"/><linearGradient id="linear-gradient-9" x1="26.67" y1="146.23" x2="154.9" y2="146.23" gradientTransform="translate(293.87 303.71) rotate(143.75)" xlink:href="#linear-gradient-3"/><linearGradient id="linear-gradient-10" x1="203.16" y1="165.47" x2="270" y2="165.47" gradientTransform="translate(-34.99 221.72) rotate(-72)" xlink:href="#linear-gradient-5"/><linearGradient id="linear-gradient-11" x1="59.51" y1="246.71" x2="180.84" y2="246.71" gradientTransform="translate(-34.99 221.72) rotate(-72)" xlink:href="#linear-gradient-4"/></defs><title>Asset 11</title><g id="Layer_2" data-name="Layer 2"><g id="Layer_1-2" data-name="Layer 1"><path class="cls-1" d="M112.88,127.83l-80-25.44a107.51,107.51,0,0,0,39.8,119.93l49-68.29A23.49,23.49,0,0,1,112.88,127.83Z"/><path class="cls-2" d="M127.75,113.46A23.29,23.29,0,0,1,135,112.3l0-84A107.64,107.64,0,0,0,32.78,102.63l79.9,25.91A23.48,23.48,0,0,1,127.75,113.46Z"/><path class="cls-3" d="M199.1,221.4l-49.89-67.57a23.49,23.49,0,0,1-27.61.22L72.74,222.4A107.53,107.53,0,0,0,199.1,221.4Z"/><path class="cls-4" d="M157.6,142.16a23.29,23.29,0,0,1-8.51,11.75l49.5,67.88a107.5,107.5,0,0,0,38.83-120.25l-79.84,26.1A23.38,23.38,0,0,1,157.6,142.16Z"/><path class="cls-5" d="M142.41,113.22a23.42,23.42,0,0,1,15.13,15L237.34,102A107.61,107.61,0,0,0,134.85,28.07l.3,84A23.24,23.24,0,0,1,142.41,113.22Z"/><path class="cls-6" d="M205.85,134.94a71,71,0,1,1-71-71A71,71,0,0,1,205.85,134.94Z"/><path class="cls-7" d="M134.85,206.5a71.56,71.56,0,1,1,71.57-71.56A71.64,71.64,0,0,1,134.85,206.5Zm0-142a70.43,70.43,0,1,0,70.43,70.43A70.5,70.5,0,0,0,134.85,64.51Z"/><path class="cls-8" d="M71.74,225.87c-.57-.39-1.14-.8-1.7-1.2A110.77,110.77,0,0,1,27.93,107.53l-8.07-15L4.74,99.79A135.07,135.07,0,0,0,55.69,244.42l1.88,1.34-2.3-16.89Z"/><path class="cls-9" d="M28.79,102.5c.19-.59.38-1.17.58-1.76a110.85,110.85,0,0,1,99-75.31l11.87-12.19L128.75,1A135.37,135.37,0,0,0,6.21,93c-.21.62-.42,1.25-.62,1.88L21,87.64Z"/><path class="cls-10" d="M201.32,222.81c-.53.41-1.07.81-1.61,1.21a110.7,110.7,0,0,1-124.09,4.63L58.9,231.82l2.39,16.67a135,135,0,0,0,152.84-4.79l1.73-1.29-16.72-3Z"/><path class="cls-11" d="M176.85,6.66A135,135,0,0,0,135.11,0l-2.66,0L144.27,12.3,132.74,24.44l2.37,0A110.79,110.79,0,0,1,238,94.4l15.37,7.4,8-14.8A134.77,134.77,0,0,0,176.85,6.66Z"/><path class="cls-12" d="M239.72,99c.22.64.44,1.28.65,1.93a110.72,110.72,0,0,1-34.9,119.63l-2.31,16.88,16.55,3A135.3,135.3,0,0,0,263.6,93.36c-.23-.7-.46-1.4-.7-2.09l-8.07,15Z"/><path class="cls-7" d="M168.71,27.66l6.18-18.45,4.43,1.48-6.18,18.45Z"/><path class="cls-7" d="M175.44,29.86l7.86-17.8,4.61,2a13,13,0,0,1,2.83,1.62,4.25,4.25,0,0,1,1.41,1.84,4.16,4.16,0,0,1,.21,2.17,11.45,11.45,0,0,1-.87,2.74l-2.84,6.42a11.65,11.65,0,0,1-1.44,2.5,4.1,4.1,0,0,1-4.06,1.51,12.83,12.83,0,0,1-3.09-1Zm5.61-1.11.4.17a4,4,0,0,0,.91.3,1,1,0,0,0,.63-.12,1.47,1.47,0,0,0,.44-.42,6.72,6.72,0,0,0,.4-.78l3.69-8.35a5.87,5.87,0,0,0,.3-.82,1.18,1.18,0,0,0,0-.59.91.91,0,0,0-.35-.53,3.52,3.52,0,0,0-.83-.47l-.4-.18Z"/><path class="cls-7" d="M187.93,35.61l9.71-16.85,7.75,4.47L203.8,26l-3.7-2.13-2.16,3.76,2.75,1.59L199,32.08l-2.76-1.59-2.71,4.7,3.74,2.16-1.59,2.75Z"/><path class="cls-7" d="M196.91,40.85l11.4-15.76L211,27,209,35.83l4.88-6.75L217,31.35,205.56,47.1,203,45.23l2.55-9.45-5.36,7.42Z"/><path class="cls-7" d="M208.61,49.76l10.63-11.87L217.16,36l2.34-2.62,7.64,6.83-2.35,2.63L222.72,41,212.1,52.89Z"/><path class="cls-7" d="M215.08,55.77l14.07-13.43,3.22,3.38L218.31,59.15Z"/><path class="cls-7" d="M220,60.94,235,48.63l5.41,6.62-2.47,2-2.45-3-3.44,2.81,2.2,2.7-2.56,2.09-2.2-2.7-6.59,5.39Z"/><path class="cls-7" d="M227.58,70.72l6.87-4.59L241.8,57l2.46,3.67-3.49,4.15,5-1.85,2.35,3.52-11.21,3.36-6.87,4.59Z"/><path class="cls-7" d="M37.8,76.25,21.73,65,25,60.32a14.63,14.63,0,0,1,1.34-1.7,8.07,8.07,0,0,1,1.42-1.2,4,4,0,0,1,1.56-.63,4,4,0,0,1,1.72.15,6.48,6.48,0,0,1,2,1,8.43,8.43,0,0,1,2.3,2.21,3.84,3.84,0,0,1,.49,2.61L45,66l-2.81,4-8.24-3.35-.56.79,7.11,5ZM31.22,65.93l.7-1a1.77,1.77,0,0,0,.36-1.7A3.46,3.46,0,0,0,31,61.75,3.45,3.45,0,0,0,29.18,61a1.51,1.51,0,0,0-1.33.76L27,63Z"/><path class="cls-7" d="M46.17,64.72,31.42,51.77l5.91-6.72,2.42,2.12-2.82,3.21,3.29,2.89,2.1-2.4,2.51,2.21-2.1,2.39,4.12,3.61,2.84-3.24L52.1,58Z"/><path class="cls-7" d="M57.46,53.3a7.87,7.87,0,0,1-2.36,1.57,4.1,4.1,0,0,1-2.24.27,5.5,5.5,0,0,1-2.11-.84,10.73,10.73,0,0,1-2.09-1.81l-4.82-5.21A11.1,11.1,0,0,1,42.19,45a5.74,5.74,0,0,1-.67-2.17A4.15,4.15,0,0,1,42,40.65a7.91,7.91,0,0,1,1.75-2.22,8.51,8.51,0,0,1,1.88-1.35,4.61,4.61,0,0,1,1.72-.54,3.91,3.91,0,0,1,1.59.18,5.61,5.61,0,0,1,1.48.76,8.58,8.58,0,0,1,1.37,1.24L53,40l-3.38,3.12-1.46-1.58c-.19-.21-.35-.37-.48-.49a3.7,3.7,0,0,0-.49-.35.88.88,0,0,0-.59-.14,1,1,0,0,0-.58.29,1.14,1.14,0,0,0-.3.46.83.83,0,0,0,0,.46,1.32,1.32,0,0,0,.18.47c.11.17.21.32.3.44l.35.4L53,50.19l.38.39a3.26,3.26,0,0,0,.42.32,1.33,1.33,0,0,0,.45.22.9.9,0,0,0,.46,0,1,1,0,0,0,.47-.27,1,1,0,0,0,.34-.55.88.88,0,0,0-.1-.6,3.1,3.1,0,0,0-.31-.53l-.45-.51L53.16,47l3.38-3.13,1.18,1.29a10.1,10.1,0,0,1,1.15,1.48,5.86,5.86,0,0,1,.65,1.55,3.92,3.92,0,0,1,.08,1.63,4.62,4.62,0,0,1-.66,1.69A7.8,7.8,0,0,1,57.46,53.3Z"/><path class="cls-7" d="M69.56,43a7.75,7.75,0,0,1-2,2A7.85,7.85,0,0,1,65,46.33a4.17,4.17,0,0,1-2.24,0,5.46,5.46,0,0,1-2-1.06,11.17,11.17,0,0,1-1.86-2L54.7,37.39A11,11,0,0,1,53.33,35a5.26,5.26,0,0,1-.4-2.21,4,4,0,0,1,.73-2.12,7.86,7.86,0,0,1,2-2,7.94,7.94,0,0,1,2.52-1.29,4.11,4.11,0,0,1,2.25-.05,5.42,5.42,0,0,1,2,1.06,11.22,11.22,0,0,1,1.87,2.05l4.25,5.86a10.74,10.74,0,0,1,1.37,2.4,5.49,5.49,0,0,1,.39,2.22A4.18,4.18,0,0,1,69.56,43Zm-4-.7a1,1,0,0,0,.4-.5.91.91,0,0,0,0-.61,3.87,3.87,0,0,0-.25-.57c-.09-.16-.22-.34-.37-.56l-5.7-7.84a6.14,6.14,0,0,0-.42-.53,2.72,2.72,0,0,0-.46-.41,1,1,0,0,0-.57-.2,1.07,1.07,0,0,0-.6.23,1,1,0,0,0-.36.42,1.18,1.18,0,0,0-.09.43,1.41,1.41,0,0,0,.15.49,2.48,2.48,0,0,0,.24.44c.07.1.17.25.31.43l5.69,7.85.32.42a2.84,2.84,0,0,0,.35.37,1.3,1.3,0,0,0,.41.29,1.07,1.07,0,0,0,.45.06A1,1,0,0,0,65.6,42.34Z"/><path class="cls-7" d="M76,39.08,63.52,23.58l3.42-1.93,7.94,10.42L69.9,20l3.68-2.08,6.81,18.69Z"/><path class="cls-7" d="M84.57,34.4,76.65,16.45l8.19-3.61,1.3,2.94L82.23,17.5l1.77,4,2.91-1.28,1.35,3.05-2.91,1.28,2.21,5,3.94-1.74,1.3,2.93Z"/><path class="cls-7" d="M94.07,30.23,88.15,11.52,93.59,9.8a17.94,17.94,0,0,1,2.1-.53,8.35,8.35,0,0,1,1.86-.09,4.08,4.08,0,0,1,1.62.45,4.18,4.18,0,0,1,1.28,1.16,6.52,6.52,0,0,1,1,2,8.44,8.44,0,0,1,.49,3.15,3.92,3.92,0,0,1-1.2,2.38L106,26.45l-4.67,1.48-4.51-7.67-.92.29,2.61,8.27ZM95.12,18l1.17-.37a1.74,1.74,0,0,0,1.31-1.13,3.52,3.52,0,0,0-.16-2,3.5,3.5,0,0,0-1-1.65A1.52,1.52,0,0,0,95,12.7l-1.39.43Z"/><path class="cls-7" d="M248.46,131.47l19.45.38-.13,6.91a4.91,4.91,0,0,1-1.54,3.82,6.25,6.25,0,0,1-4.28,1.2,8.4,8.4,0,0,1-2.46-.36,4.83,4.83,0,0,1-1.64-.85,3.59,3.59,0,0,1-.95-1.3,6,6,0,0,1-.45-1.58,11.13,11.13,0,0,1-.08-1.8l0-1.58-8-.16Zm11.24,4.9,0,1.49a1.22,1.22,0,0,0,.56,1.23,4.74,4.74,0,0,0,1.93.31,4.51,4.51,0,0,0,.65,0,3.64,3.64,0,0,0,.6-.09,1.69,1.69,0,0,0,.54-.24,1.38,1.38,0,0,0,.36-.45,1.82,1.82,0,0,0,.15-.71l0-1.44Z"/><path class="cls-7" d="M248.08,145l19.25,2.76-.8,5.65a17,17,0,0,1-.44,2.12,7.45,7.45,0,0,1-.72,1.72,4,4,0,0,1-1.1,1.26,4,4,0,0,1-1.59.65,6.2,6.2,0,0,1-2.16,0,8.37,8.37,0,0,1-3-.92,3.85,3.85,0,0,1-1.61-2.11l-9.59,1.26.7-4.85,8.79-.74.14-1-8.51-1.23Zm10.44,6.23-.18,1.21a1.76,1.76,0,0,0,.45,1.67,3.45,3.45,0,0,0,1.83.72,3.39,3.39,0,0,0,1.89-.16,1.51,1.51,0,0,0,.84-1.28l.21-1.44Z"/><path class="cls-7" d="M243.81,167.26a8.06,8.06,0,0,1,.32-2.81,7.92,7.92,0,0,1,1.14-2.58,4.13,4.13,0,0,1,1.72-1.44,5.45,5.45,0,0,1,2.19-.42,11.2,11.2,0,0,1,2.71.43l6.93,1.88a10.92,10.92,0,0,1,2.55,1,5,5,0,0,1,1.68,1.47,4.19,4.19,0,0,1,.76,2.11,8.28,8.28,0,0,1-.32,2.8,8.08,8.08,0,0,1-1.15,2.59,4.13,4.13,0,0,1-1.72,1.44,5.1,5.1,0,0,1-2.19.43,10.38,10.38,0,0,1-2.72-.42l-6.92-1.88a10.84,10.84,0,0,1-2.56-1,5.33,5.33,0,0,1-1.67-1.48A4.16,4.16,0,0,1,243.81,167.26Zm3.5-1.95a1,1,0,0,0,0,.65,1,1,0,0,0,.39.46,3.23,3.23,0,0,0,.54.29c.17.06.38.13.64.2l9.27,2.52q.39.1.66.15a2.87,2.87,0,0,0,.6,0,.9.9,0,0,0,.57-.21,1.07,1.07,0,0,0,.33-.55,1,1,0,0,0,0-.55,1,1,0,0,0-.2-.4,1.39,1.39,0,0,0-.41-.28,3.5,3.5,0,0,0-.46-.19l-.51-.15-9.28-2.52-.51-.13a3.8,3.8,0,0,0-.49-.07,1.48,1.48,0,0,0-.5,0,.93.93,0,0,0-.38.24A.88.88,0,0,0,247.31,165.31Z"/><path class="cls-7" d="M241.5,173.8l14.84,5.79,1-2.6,3.28,1.28-3.72,9.55-3.28-1.28,1-2.58-14.85-5.8Z"/><path class="cls-7" d="M238.21,181.91l17.39,8.72-4,8-2.85-1.43,1.91-3.81-3.88-1.95-1.43,2.84-3-1.48,1.42-2.84L239,187.52,237,191.38,234.18,190Z"/><path class="cls-7" d="M230.17,195.83a8,8,0,0,1,1.88-2.12,4.18,4.18,0,0,1,2.09-.84,5.46,5.46,0,0,1,2.24.27,10.82,10.82,0,0,1,2.47,1.22l5.92,3.79a10.72,10.72,0,0,1,2.14,1.74,5.55,5.55,0,0,1,1.18,1.92,4.05,4.05,0,0,1,.11,2.25,7.83,7.83,0,0,1-1.13,2.59,8.77,8.77,0,0,1-1.47,1.78,4.71,4.71,0,0,1-1.53,1,3.82,3.82,0,0,1-1.58.23,5.22,5.22,0,0,1-1.6-.35,8.89,8.89,0,0,1-1.64-.85l-1.47-.94,2.49-3.87,1.79,1.15.58.34a3.44,3.44,0,0,0,.56.22.9.9,0,0,0,.61,0,1.08,1.08,0,0,0,.48-.43,1.12,1.12,0,0,0,.18-.52,1.07,1.07,0,0,0-.07-.45,1.63,1.63,0,0,0-.3-.41,3.62,3.62,0,0,0-.39-.34l-.44-.3-8.06-5.17a4.89,4.89,0,0,0-.46-.27,3.79,3.79,0,0,0-.48-.21,1.6,1.6,0,0,0-.49-.09.81.81,0,0,0-.44.12,1.14,1.14,0,0,0-.39.37,1,1,0,0,0-.19.62.87.87,0,0,0,.24.56,2.79,2.79,0,0,0,.44.42,4.82,4.82,0,0,0,.55.39l1.88,1.2-2.48,3.87-1.47-.93a9.5,9.5,0,0,1-1.46-1.14,5.5,5.5,0,0,1-1-1.33,3.9,3.9,0,0,1-.48-1.54,4.9,4.9,0,0,1,.21-1.8A8.53,8.53,0,0,1,230.17,195.83Z"/><path class="cls-7" d="M225.17,203.51l12.44,10,1.74-2.18,2.75,2.2-6.41,8-2.75-2.2,1.74-2.17-12.44-10Z"/><path class="cls-7" d="M48.12,206.93,32.55,218.6,29.13,214a17.86,17.86,0,0,1-1.19-1.8,8,8,0,0,1-.7-1.72,3.7,3.7,0,0,1,.55-3.25,6.13,6.13,0,0,1,1.52-1.54,8.15,8.15,0,0,1,2.79-1.49,3.82,3.82,0,0,1,2.62.35l5.89-7.67,2.94,3.92-5.7,6.74.58.77,6.88-5.16Zm-11.78,3-.73-1a1.77,1.77,0,0,0-1.5-.88,3.51,3.51,0,0,0-1.8.8,3.44,3.44,0,0,0-1.23,1.44,1.56,1.56,0,0,0,.31,1.5l.87,1.17Z"/><path class="cls-7" d="M39.79,195.44,23,205.34l-4.54-7.69L21.24,196l2.17,3.66,3.74-2.21-1.62-2.73,2.85-1.69L30,195.8,34.67,193l-2.19-3.7,2.74-1.62Z"/><path class="cls-7" d="M32.62,181.56a5.42,5.42,0,0,1,.44,4.4q-.75,1.83-3.8,3.33l-2.15-3.37a11,11,0,0,0,1.42-.77,3.15,3.15,0,0,0,.79-.7,1.32,1.32,0,0,0,.26-.58,1,1,0,0,0-.09-.54c-.22-.47-.68-.55-1.37-.22a3.59,3.59,0,0,0-1.55,1.27,8.1,8.1,0,0,0-.93,2.2l-.44,1.54c-.16.55-.32,1-.47,1.4a8.55,8.55,0,0,1-.63,1.24,4.85,4.85,0,0,1-1,1.18,6.84,6.84,0,0,1-1.5.93,5,5,0,0,1-4.15.28,5.9,5.9,0,0,1-3-3.15q-2-4.26,3.16-6.68l2.08,3.5c-.46.21-.8.38-1,.5a4.38,4.38,0,0,0-.67.42,1,1,0,0,0-.4.47.69.69,0,0,0,.05.5.74.74,0,0,0,.69.39,2,2,0,0,0,.91-.18,2.86,2.86,0,0,0,.42-.24l.35-.24a1.78,1.78,0,0,0,.3-.31,3.45,3.45,0,0,1,.24-.3,1.86,1.86,0,0,0,.21-.35,2.22,2.22,0,0,1,.17-.33c0-.06.08-.19.15-.38a2.47,2.47,0,0,1,.12-.34l.11-.39q.11-.33.12-.36l.44-1.42a15.53,15.53,0,0,1,.59-1.59,9.49,9.49,0,0,1,.78-1.4A6.09,6.09,0,0,1,24.37,180,7.38,7.38,0,0,1,26,179a4.84,4.84,0,0,1,3.8-.2A5,5,0,0,1,32.62,181.56Z"/><path class="cls-7" d="M29.61,175.62l-18.45,6.15L9,175.22a4.85,4.85,0,0,1,.17-4.1,6.27,6.27,0,0,1,3.62-2.56,8.42,8.42,0,0,1,2.45-.49,4.94,4.94,0,0,1,1.83.25,3.56,3.56,0,0,1,1.33.91,5.62,5.62,0,0,1,.95,1.33,11.3,11.3,0,0,1,.68,1.67l.5,1.5,7.62-2.55Zm-12.22-.85-.48-1.41c-.2-.59-.51-.92-.93-1a4.79,4.79,0,0,0-1.92.35c-.25.08-.45.16-.62.23a4.12,4.12,0,0,0-.53.29,1.54,1.54,0,0,0-.43.41,1.32,1.32,0,0,0-.18.54,1.53,1.53,0,0,0,.09.71l.45,1.37Z"/><path class="cls-7" d="M23.63,154.43a9.15,9.15,0,0,1,1.11,5.46,4.11,4.11,0,0,1-.88,2.05,5.37,5.37,0,0,1-1.77,1.36,11.06,11.06,0,0,1-2.62.84l-7,1.44a11,11,0,0,1-2.73.25,5.23,5.23,0,0,1-2.16-.56,4,4,0,0,1-1.62-1.54,7.83,7.83,0,0,1-1-2.64,8.15,8.15,0,0,1-.14-2.82,4.23,4.23,0,0,1,.88-2.06,5.39,5.39,0,0,1,1.77-1.37,10.66,10.66,0,0,1,2.61-.85l7-1.43a10.56,10.56,0,0,1,2.73-.25,5.17,5.17,0,0,1,2.17.57A4.2,4.2,0,0,1,23.63,154.43Zm-2.25,3.3a1,1,0,0,0-.3-.57,1,1,0,0,0-.55-.24,3.27,3.27,0,0,0-.62,0,5.63,5.63,0,0,0-.66.11l-9.41,1.92c-.26.05-.48.11-.65.16a3.27,3.27,0,0,0-.55.25.94.94,0,0,0-.42.44,1,1,0,0,0,0,.64,1,1,0,0,0,.23.49,1.06,1.06,0,0,0,.36.27,1.4,1.4,0,0,0,.49.06,3.34,3.34,0,0,0,.5,0l.52-.1,9.42-1.93.51-.11a3,3,0,0,0,.48-.16,1.32,1.32,0,0,0,.43-.26,1.07,1.07,0,0,0,.23-.38A1,1,0,0,0,21.38,157.73Z"/><path class="cls-7" d="M22.87,149.35,3.49,151l-.28-3.31,8-4.17-8.3.7-.32-3.84L22,138.73l.27,3.18-8.83,4.21,9.12-.76Z"/><path class="cls-7" d="M21.9,136.45l-19.44-.7.18-5a13.32,13.32,0,0,1,.45-3.23,4.32,4.32,0,0,1,1.18-2,4.24,4.24,0,0,1,1.94-1,11.59,11.59,0,0,1,2.87-.2l7,.25A11.24,11.24,0,0,1,19,125a4.06,4.06,0,0,1,2.91,3.2,12.94,12.94,0,0,1,.22,3.24Zm-3.12-4.79,0-.44a3.67,3.67,0,0,0-.07-.95.85.85,0,0,0-.34-.54,1.24,1.24,0,0,0-.56-.25,6.49,6.49,0,0,0-.87-.09l-9.12-.32a5.68,5.68,0,0,0-.87,0,1.41,1.41,0,0,0-.56.21.91.91,0,0,0-.36.52,3.65,3.65,0,0,0-.12.94l0,.44Z"/><path class="cls-7" d="M96.25,262.5,101,243.66l4.88,1.24A12.79,12.79,0,0,1,109,246a4.26,4.26,0,0,1,1.7,1.57,4.33,4.33,0,0,1,.57,2.1,11.45,11.45,0,0,1-.41,2.85l-1.71,6.79a11.58,11.58,0,0,1-1,2.7,4.06,4.06,0,0,1-3.75,2.17,12.84,12.84,0,0,1-3.21-.46Zm5.33-2,.43.1a3.43,3.43,0,0,0,.94.14.94.94,0,0,0,.61-.22,1.48,1.48,0,0,0,.36-.49,5.78,5.78,0,0,0,.26-.84l2.24-8.84a6,6,0,0,0,.16-.85,1.2,1.2,0,0,0-.09-.59,1,1,0,0,0-.43-.46,3.8,3.8,0,0,0-.9-.32l-.42-.11Z"/><path class="cls-7" d="M112.48,266.2,115.11,247l8.85,1.21-.43,3.16-4.22-.57-.59,4.29,3.15.43-.45,3.28-3.15-.44-.73,5.38,4.27.58-.43,3.15Z"/><path class="cls-7" d="M127.21,267.8l.61-15.9-2.79-.11.14-3.51,10.23.39-.13,3.51-2.78-.1-.6,15.9Z"/><path class="cls-7" d="M138.61,268l-1.14-19.4,8.92-.52.19,3.18-4.26.25.26,4.33,3.17-.19.2,3.3-3.18.19.32,5.42,4.3-.26.19,3.17Z"/><path class="cls-7" d="M157.44,266.38a7.94,7.94,0,0,1-2.83,0,4.05,4.05,0,0,1-2-1,5.62,5.62,0,0,1-1.3-1.84,10.64,10.64,0,0,1-.75-2.64L149.39,254a10.27,10.27,0,0,1-.15-2.75,5.44,5.44,0,0,1,.63-2.16,4,4,0,0,1,1.59-1.59,7.6,7.6,0,0,1,2.69-.89,8.36,8.36,0,0,1,2.3-.11,4.7,4.7,0,0,1,1.73.48,3.78,3.78,0,0,1,1.23,1,5.48,5.48,0,0,1,.82,1.43,9,9,0,0,1,.46,1.78l.29,1.72-4.54.75-.35-2.1a6.4,6.4,0,0,0-.13-.66,3.07,3.07,0,0,0-.21-.56,1,1,0,0,0-.42-.44,1,1,0,0,0-.64-.07,1.09,1.09,0,0,0-.51.22,1.07,1.07,0,0,0-.29.36,1.5,1.5,0,0,0-.1.49c0,.2,0,.37,0,.52s0,.32.07.52l1.57,9.43c0,.2.07.38.1.53a4.83,4.83,0,0,0,.17.49,1.68,1.68,0,0,0,.26.43,1,1,0,0,0,.39.25,1.07,1.07,0,0,0,.54,0,1,1,0,0,0,.58-.27.83.83,0,0,0,.25-.55,2.59,2.59,0,0,0,0-.61c0-.17,0-.39-.08-.67l-.37-2.19,4.53-.76.29,1.71a9.46,9.46,0,0,1,.14,1.85,5.41,5.41,0,0,1-.31,1.64,4,4,0,0,1-.82,1.39,4.88,4.88,0,0,1-1.48,1.05A8.11,8.11,0,0,1,157.44,266.38Z"/><path class="cls-7" d="M169.15,263.58l-4.29-15.32-2.68.75-1-3.39,9.86-2.76.95,3.39-2.68.75,4.29,15.32Z"/></g></g></svg>
